<svg xmlns="http://www.w3.org/2000/svg" viewBox="0 0 32 32"><defs><style>.cls-1{fill:#1a73e8;}.cls-2{fill:#fd9400;}.cls-3{fill:#1a1a1a;}</style></defs><g id="Capa_2" data-name="Capa 2"><g id="Isotipo"><circle class="cls-1" cx="16" cy="16" r="16"/><g id="Color"><path class="cls-2" d="M22.41,15.37c0,.38,0,.76,0,1.15l-.1-.08a4.07,4.07,0,0,0-3.56-.73,3.83,3.83,0,0,0-3,5.25,4.29,4.29,0,0,0,1,1.42c-.29.13-.61.31-.89.44-.2-.28-.36-.33-.66-.18a.33.33,0,0,1-.32,0L8.17,19.7A.25.25,0,0,1,8,19.43V11.77c0-.29,0-.29.27-.18l6.43,2.87a.69.69,0,0,0,.61,0l6.51-2.89c.18-.08.35-.16.35,0,0,1.05,0,2.14,0,3.2C22.18,15.12,22.11,15.31,22.41,15.37Z"/><path class="cls-3" d="M24.39,19.29h-.72a4.44,4.44,0,0,0-.15-.86,4.21,4.21,0,0,0-.67-1.36V11.74c0-.27,0-.5,0-.68a.59.59,0,0,0-.41-.61l-5.19-2.3-2-.87a.57.57,0,0,0-.54,0L7.57,10.47A.54.54,0,0,0,7.2,11v1c0,2.61,0,5.21,0,7.82a.47.47,0,0,0,.32.48l4.28,1.9c.93.41,1.87.8,2.78,1.24a.9.9,0,0,0,.9,0,11.61,11.61,0,0,0,1.42-.8A4,4,0,0,0,19,23.6l.23,0v.67a.42.42,0,1,0,.84,0v-.69a4.16,4.16,0,0,0,3.53-3.47h.76a.43.43,0,0,0,.3-.13.42.42,0,0,0-.3-.72Zm-14.46-9,4.93-2.19a.38.38,0,0,1,.33,0c.62.29,1.24.56,1.86.83h0l1.55.69h0l.22.09,2.46,1.1.11.06-.19.09-6,2.68a.3.3,0,0,1-.28,0l-2.54-1.14h0L11,11.94l-.09,0-.71-.33L8.85,11l-.21-.1ZM16.1,22.24a5.67,5.67,0,0,1-1.24.46L8.2,19.75A.26.26,0,0,1,8,19.48c0-2.37,0-4.74,0-7.11v-.55c0-.29,0-.29.27-.18l6.44,2.87a.69.69,0,0,0,.61,0l6.5-2.89c.18-.08.19-.08.19.12v4.52a4.09,4.09,0,0,0-1.93-.8v-.68a.41.41,0,0,0-.12-.3.43.43,0,0,0-.3-.13.42.42,0,0,0-.42.43v.66l-.42.05a4.13,4.13,0,0,0-3.4,3.81h-.59a.43.43,0,0,0,0,.85h.63a3.42,3.42,0,0,0,.24.87,4.43,4.43,0,0,0,.63,1.1ZM22,20.14h.85A3.34,3.34,0,0,1,20.1,22.8v-.91a.41.41,0,0,0-.12-.3.42.42,0,0,0-.3-.12.42.42,0,0,0-.42.42v.94h-.13a3.37,3.37,0,0,1-1.73-.77l-.16-.13a3.78,3.78,0,0,1-.78-1.19,3.32,3.32,0,0,1-.18-.59h1a.45.45,0,0,0,.42-.42.42.42,0,0,0-.42-.43h-1a3.32,3.32,0,0,1,2.74-3l.28,0v.95a.42.42,0,0,0,.84,0v-.92a3.29,3.29,0,0,1,1.69.81l.08.07a3.64,3.64,0,0,1,.89,1.5,3.84,3.84,0,0,1,.11.65H22a.43.43,0,0,0,0,.85Z"/><path class="cls-2" d="M21.4,10.9l-.19.09-6,2.68a.3.3,0,0,1-.28,0l-2.54-1.14h0L11,11.94l-.09,0-.71-.33L8.85,11l-.21-.1,1.29-.57,4.93-2.19a.38.38,0,0,1,.33,0c.62.29,1.24.56,1.86.83h0l1.55.69h0l.22.09,2.46,1.1Z"/></g></g></g></svg>