<svg xmlns="http://www.w3.org/2000/svg" viewBox="0 0 80 50"><defs><style>.cls-1{fill:#1a73e8;}.cls-2{fill:#fff3f3;}.cls-3{font-size:1.36px;fill:#fff;font-family:SpaceGrotesk-Light, Space Grotesk;font-weight:300;}.cls-4{letter-spacing:-0.01em;}.cls-5{letter-spacing:-0.02em;}.cls-6{letter-spacing:-0.02em;}.cls-7{fill:#fd9400;}.cls-8{fill:#1a1a1a;}</style></defs><g id="Capa_2" data-name="Capa 2"><g id="Capa_4" data-name="Capa 4"><rect class="cls-1" width="80" height="50"/><path class="cls-2" d="M27.53,26.36a1.9,1.9,0,0,1-.82-.17,1.34,1.34,0,0,1-.57-.48,1.4,1.4,0,0,1-.2-.75v-.17h.75V25a.65.65,0,0,0,.23.54.91.91,0,0,0,.61.19.94.94,0,0,0,.59-.16.49.49,0,0,0,.2-.4.36.36,0,0,0-.1-.27.58.58,0,0,0-.28-.17,2.94,2.94,0,0,0-.44-.13l-.13,0a3.59,3.59,0,0,1-.72-.23,1.16,1.16,0,0,1-.46-.38,1.07,1.07,0,0,1-.16-.6,1.07,1.07,0,0,1,.68-1,1.75,1.75,0,0,1,.76-.14,2.07,2.07,0,0,1,.77.14,1.17,1.17,0,0,1,.53.45,1.26,1.26,0,0,1,.2.73v.17h-.76v-.17a.71.71,0,0,0-.09-.38.5.5,0,0,0-.25-.2,1,1,0,0,0-.4-.07.81.81,0,0,0-.52.13.44.44,0,0,0-.16.36.41.41,0,0,0,.07.25.76.76,0,0,0,.24.18l.4.12.13,0a4,4,0,0,1,.76.23,1.32,1.32,0,0,1,.5.39,1,1,0,0,1,.18.61,1.13,1.13,0,0,1-.19.65,1.22,1.22,0,0,1-.53.44A1.88,1.88,0,0,1,27.53,26.36Z"/><path class="cls-2" d="M30.45,26.28V22.91H29.27v-.69H32.4v.69H31.22v3.37Z"/><path class="cls-2" d="M34.34,26.36a1.72,1.72,0,0,1-1.22-.42,1.57,1.57,0,0,1-.45-1.21v-1a1.56,1.56,0,0,1,.45-1.2,2,2,0,0,1,2.44,0,1.56,1.56,0,0,1,.45,1.2v1a1.57,1.57,0,0,1-.45,1.21A1.72,1.72,0,0,1,34.34,26.36Zm0-.69a.92.92,0,0,0,.67-.24,1,1,0,0,0,.23-.67v-1a1,1,0,0,0-.23-.67,1,1,0,0,0-1.34,0,.93.93,0,0,0-.24.67v1a.93.93,0,0,0,.24.67A.92.92,0,0,0,34.34,25.67Z"/><path class="cls-2" d="M38.23,26.36a1.66,1.66,0,0,1-1.2-.42,1.6,1.6,0,0,1-.44-1.21v-1a1.59,1.59,0,0,1,.44-1.2,1.66,1.66,0,0,1,1.2-.42,1.53,1.53,0,0,1,1.15.41,1.51,1.51,0,0,1,.41,1.12v0H39v-.06a.9.9,0,0,0-.2-.59.79.79,0,0,0-.61-.23.8.8,0,0,0-.64.25.94.94,0,0,0-.24.68v1a.93.93,0,0,0,.24.67.8.8,0,0,0,.64.25.76.76,0,0,0,.61-.23.9.9,0,0,0,.2-.59v-.1h.75v.08A1.53,1.53,0,0,1,39.38,26,1.57,1.57,0,0,1,38.23,26.36Z"/><path class="cls-2" d="M40.42,26.28V22.22h.76v1.61h.11l1.31-1.61h1l-1.69,2,1.75,2.06h-1l-1.34-1.65h-.11v1.65Z"/><path class="cls-2" d="M44.05,26.28V22.22h.76v1.67h1.51V22.22h.77v4.06h-.77V24.59H44.81v1.69Z"/><path class="cls-2" d="M49.42,26.36a1.91,1.91,0,0,1-.86-.18,1.31,1.31,0,0,1-.54-.53,1.55,1.55,0,0,1-.19-.8V22.22h.77v2.65a.8.8,0,0,0,.21.59,1,1,0,0,0,1.22,0,.8.8,0,0,0,.21-.59V22.22H51v2.63a1.55,1.55,0,0,1-.19.8,1.31,1.31,0,0,1-.54.53A1.91,1.91,0,0,1,49.42,26.36Z"/><path class="cls-2" d="M51.75,26.28V22.22h1.46l.8,3.54h.11V22.22h.75v4.06H53.42l-.81-3.54h-.1v3.54Z"/><path class="cls-2" d="M56.58,26.28V22.91H55.39v-.69h3.14v.69H57.34v3.37Z"/><path class="cls-2" d="M59.05,26.28V22.22h2.61v.69H59.81v1H61.5v.7H59.81v1h1.88v.7Z"/><path class="cls-2" d="M62.26,26.28V22.22H64a1.53,1.53,0,0,1,.66.13,1,1,0,0,1,.44.38,1,1,0,0,1,.16.57v.07a1,1,0,0,1-.17.59,1.06,1.06,0,0,1-.43.33v.11a.5.5,0,0,1,.36.16.61.61,0,0,1,.12.39v1.33h-.76V25.06a.42.42,0,0,0-.07-.23.33.33,0,0,0-.24-.08H63v1.53ZM63,24.05h.91a.58.58,0,0,0,.43-.15.53.53,0,0,0,.15-.39v-.06a.53.53,0,0,0-.15-.39.58.58,0,0,0-.43-.15H63Z"/><path class="cls-2" d="M67.34,26.36a2,2,0,0,1-.83-.17,1.26,1.26,0,0,1-.56-.48,1.32,1.32,0,0,1-.21-.75v-.17h.76V25a.65.65,0,0,0,.22.54.92.92,0,0,0,.62.19,1,1,0,0,0,.59-.16.48.48,0,0,0,.19-.4.36.36,0,0,0-.1-.27.6.6,0,0,0-.27-.17,3.1,3.1,0,0,0-.45-.13l-.13,0a3.59,3.59,0,0,1-.72-.23,1.16,1.16,0,0,1-.46-.38,1.07,1.07,0,0,1-.15-.6,1.11,1.11,0,0,1,.17-.64,1.17,1.17,0,0,1,.5-.4,1.81,1.81,0,0,1,.76-.14,2,2,0,0,1,.77.14,1.2,1.2,0,0,1,.54.45,1.26,1.26,0,0,1,.19.73v.17H68v-.17a.71.71,0,0,0-.09-.38.52.52,0,0,0-.26-.2,1,1,0,0,0-.4-.07.85.85,0,0,0-.52.13.44.44,0,0,0-.16.36.41.41,0,0,0,.08.25.62.62,0,0,0,.23.18l.4.12.14,0a3.93,3.93,0,0,1,.75.23,1.18,1.18,0,0,1,.5.39,1,1,0,0,1,.18.61,1.2,1.2,0,0,1-.18.65,1.31,1.31,0,0,1-.54.44A1.86,1.86,0,0,1,67.34,26.36Z"/><text class="cls-3" transform="translate(53.22 28.74)">Cu<tspan class="cls-4" x="1.7" y="0">s</tspan><tspan class="cls-5" x="2.4" y="0">t</tspan><tspan x="3" y="0">om S</tspan><tspan class="cls-5" x="6.2" y="0">t</tspan><tspan x="6.8" y="0">ock S</tspan><tspan class="cls-6" x="10.36" y="0">of</tspan><tspan x="11.75" y="0">t</tspan><tspan class="cls-4" x="12.37" y="0">w</tspan><tspan x="13.45" y="0">a</tspan><tspan class="cls-5" x="14.23" y="0">r</tspan><tspan x="14.71" y="0">e</tspan></text><path class="cls-7" d="M24.41,23.7c0,.33,0,.67,0,1l-.09-.07A3.59,3.59,0,0,0,21.2,24a3.35,3.35,0,0,0-2.67,4.59,3.85,3.85,0,0,0,.88,1.24c-.25.11-.53.27-.78.38a.38.38,0,0,0-.57-.15.28.28,0,0,1-.28,0c-1.94-.86-3.88-1.73-5.83-2.58a.22.22,0,0,1-.15-.24v-6.7c0-.26,0-.26.23-.15l5.63,2.5a.6.6,0,0,0,.54,0l5.69-2.53c.16-.07.31-.14.31,0v2.8C24.2,23.48,24.14,23.65,24.41,23.7Z"/><path class="cls-8" d="M26.14,27.13h-.63a4.17,4.17,0,0,0-.13-.76,3.74,3.74,0,0,0-.59-1.18V20.52c0-.23,0-.43,0-.59a.5.5,0,0,0-.36-.53l-4.54-2-1.71-.77a.57.57,0,0,0-.48,0l-6.29,2.8a.47.47,0,0,0-.32.49c0,.29,0,.59,0,.89v6.84a.38.38,0,0,0,.27.41l3.75,1.67c.81.36,1.63.7,2.43,1.08a.8.8,0,0,0,.78,0,9.49,9.49,0,0,0,1.25-.71,3.49,3.49,0,0,0,1.86.82l.2,0v.59a.36.36,0,0,0,.37.37.37.37,0,0,0,.37-.37v-.6a3.64,3.64,0,0,0,3.08-3h.67a.36.36,0,0,0,.26-.11.38.38,0,0,0,.1-.26A.37.37,0,0,0,26.14,27.13ZM13.49,19.28l4.31-1.91a.33.33,0,0,1,.29,0l1.63.73h0l1.35.6h0l.2.09,2.15,1,.09.05-.16.08-5.27,2.34a.26.26,0,0,1-.24,0l-2.23-1h0l-1.21-.54-.08,0-.62-.28-1.17-.52-.18-.08Zm5.4,10.43a4.8,4.8,0,0,1-1.09.4L12,27.53a.22.22,0,0,1-.15-.24c0-2.07,0-4.14,0-6.22V20.6c0-.26,0-.26.24-.16L17.69,23a.58.58,0,0,0,.53,0l5.69-2.52c.16-.08.16-.07.16.1v3.95a3.54,3.54,0,0,0-1.68-.7v-.6A.38.38,0,0,0,22,22.8a.37.37,0,0,0-.37.37v.59l-.37,0a3.6,3.6,0,0,0-3,3.33h-.52a.38.38,0,0,0-.37.37.37.37,0,0,0,.37.37h.55a3.52,3.52,0,0,0,.21.77,3.77,3.77,0,0,0,.56.95ZM24,27.87h.74a2.9,2.9,0,0,1-2.37,2.33v-.8A.38.38,0,0,0,22,29a.37.37,0,0,0-.37.37v.83l-.11,0A2.87,2.87,0,0,1,20,29.54l-.14-.11a3.4,3.4,0,0,1-.68-1,2.55,2.55,0,0,1-.15-.52h.86a.36.36,0,0,0,.26-.11.39.39,0,0,0,.11-.26.38.38,0,0,0-.37-.37H19a2.93,2.93,0,0,1,2.39-2.65l.25,0v.83a.36.36,0,0,0,.37.37.37.37,0,0,0,.37-.37v-.8a2.85,2.85,0,0,1,1.47.71l.07.06a3,3,0,0,1,.78,1.31,3.78,3.78,0,0,1,.1.57H24a.38.38,0,0,0-.37.37A.37.37,0,0,0,24,27.87Z"/><path class="cls-7" d="M23.52,19.79l-.16.08-5.27,2.34a.26.26,0,0,1-.24,0l-2.23-1h0l-1.21-.54-.08,0-.62-.28-1.17-.52-.18-.08,1.13-.51,4.31-1.91a.33.33,0,0,1,.29,0l1.63.73h0l1.35.6h0l.2.09,2.15,1Z"/></g></g></svg>